<svg width="25" height="25" viewBox="0 0 25 25" fill="none" xmlns="http://www.w3.org/2000/svg">
<g id="Frame">
<path id="Vector" fill-rule="evenodd" clip-rule="evenodd" d="M9.33199 7.30981C9.33199 5.6976 10.5722 4.30981 12.332 4.30981C14.0918 4.30981 15.332 5.6976 15.332 7.30981V8.30981H9.33199V7.30981ZM7.83199 9.80981V12.3098H9.33199V9.80981H15.332V12.3098H16.832V9.80981H18.832V20.5598C18.832 20.974 18.4962 21.3098 18.082 21.3098H6.58199C6.16778 21.3098 5.83199 20.974 5.83199 20.5598V9.80981H7.83199ZM7.83199 8.30981V7.30981C7.83199 4.92202 9.69183 2.80981 12.332 2.80981C14.9722 2.80981 16.832 4.92202 16.832 7.30981V8.30981H19.582H20.332V9.05981V20.5598C20.332 21.8024 19.3246 22.8098 18.082 22.8098H6.58199C5.33935 22.8098 4.33199 21.8024 4.33199 20.5598V9.05981V8.30981H5.08199H7.83199Z" fill="#141415"/>
</g>
</svg>
