<svg width="25" height="25" viewBox="0 0 25 25" fill="none" xmlns="http://www.w3.org/2000/svg">
<g id="Frame">
<path id="Vector" d="M8.91199 10.1499V8.1499H6.91199V12.6499C6.91199 12.926 6.68813 13.1499 6.41199 13.1499C6.13585 13.1499 5.91199 12.926 5.91199 12.6499V7.1499H8.91199C8.91199 4.74618 10.8643 3.1499 12.912 3.1499C14.9695 3.1499 16.912 4.85546 16.912 7.1499H19.912V19.6499C19.912 20.4783 19.2404 21.1499 18.412 21.1499H13.412C13.1359 21.1499 12.912 20.926 12.912 20.6499C12.912 20.3738 13.1359 20.1499 13.412 20.1499H18.412C18.6881 20.1499 18.912 19.926 18.912 19.6499V8.1499H16.912V10.1499H15.912V8.1499H9.91199V10.1499H8.91199ZM12.912 4.1499C11.3597 4.1499 9.91199 5.35362 9.91199 7.1499H15.912C15.912 5.44434 14.4545 4.1499 12.912 4.1499Z" fill="#15151A"/>
<path id="Vector_2" d="M8.41199 14.1499C8.68813 14.1499 8.91199 14.3738 8.91199 14.6499V17.1499H11.412C11.6881 17.1499 11.912 17.3738 11.912 17.6499C11.912 17.926 11.6881 18.1499 11.412 18.1499H8.91199V20.6499C8.91199 20.926 8.68813 21.1499 8.41199 21.1499C8.13585 21.1499 7.91199 20.926 7.91199 20.6499V18.1499H5.41199C5.13585 18.1499 4.91199 17.926 4.91199 17.6499C4.91199 17.3738 5.13585 17.1499 5.41199 17.1499H7.91199V14.6499C7.91199 14.3738 8.13585 14.1499 8.41199 14.1499Z" fill="#15151A"/>
</g>
</svg>
