<svg width="25" height="25" viewBox="0 0 25 25" fill="none" xmlns="http://www.w3.org/2000/svg">
<g id="image">
<path id="Vector" fill-rule="evenodd" clip-rule="evenodd" d="M7.82199 6.30981C5.59134 6.30981 3.82199 8.11887 3.82199 10.3098C3.82199 11.238 4.19883 12.2534 4.87069 13.3203C5.53891 14.3814 6.46347 15.4372 7.47326 16.4317C8.87968 17.8168 10.3538 18.9977 11.4928 19.9101C11.7954 20.1525 12.0743 20.3759 12.322 20.5792C12.5697 20.3759 12.8486 20.1525 13.1512 19.9101C14.2902 18.9977 15.7643 17.8168 17.1707 16.4317C18.1805 15.4372 19.1051 14.3814 19.7733 13.3203C20.4452 12.2534 20.822 11.238 20.822 10.3098C20.822 8.11879 19.0534 6.30981 16.822 6.30981C14.6693 6.30981 13.3958 8.01207 13.0482 8.55723C12.7109 9.08636 11.9331 9.08634 11.5958 8.55723C11.2482 8.01206 9.97472 6.30981 7.82199 6.30981ZM2.32199 10.3098C2.32199 7.30075 4.75264 4.80981 7.82199 4.80981C10.0534 4.80981 11.5469 6.11188 12.322 7.02562C13.0971 6.11188 14.5906 4.80981 16.822 4.80981C19.8922 4.80981 22.322 7.30083 22.322 10.3098C22.322 11.6316 21.7926 12.9287 21.0426 14.1196C20.2889 15.3164 19.276 16.4637 18.2233 17.5004C16.7649 18.9367 15.13 20.2482 13.9722 21.177C13.4869 21.5663 13.0854 21.8884 12.8159 22.1242C12.5331 22.3717 12.1109 22.3717 11.8281 22.1242C11.5586 21.8884 11.1571 21.5663 10.6718 21.177C9.514 20.2482 7.87911 18.9367 6.42072 17.5004C5.36801 16.4637 4.35507 15.3164 3.60141 14.1196C2.8514 12.9287 2.32199 11.6316 2.32199 10.3098Z" fill="#141415"/>
</g>
</svg>
