<svg width="21" height="21" viewBox="0 0 21 21" fill="none" xmlns="http://www.w3.org/2000/svg">
<g id="Frame">
<path id="Vector" d="M6.86199 2.82983C9.42991 2.82983 10.912 4.98217 10.912 4.98217C10.912 4.98217 12.397 2.82983 14.962 2.82983C17.617 2.82983 19.912 4.89983 19.912 7.77983C19.912 12.0103 13.4724 16.4495 11.2771 18.3901C11.0702 18.573 10.7538 18.573 10.5469 18.3901C8.35255 16.4507 1.91199 12.0101 1.91199 7.77983C1.91199 4.89983 4.20699 2.82983 6.86199 2.82983Z" fill="white" fill-opacity="0.8"/>
<path id="Vector_2" d="M1.91199 7.69469C1.91199 5.0328 4.06216 2.82983 6.77685 2.82983C8.89884 2.82983 10.2712 4.18859 10.912 5.01656C11.5528 4.18859 12.9252 2.82983 15.0471 2.82983C17.7626 2.82983 19.912 5.03285 19.912 7.69469C19.912 8.8597 19.4448 10.0161 18.7654 11.0948C18.0836 12.1774 17.164 13.2201 16.202 14.1675C14.8687 15.4806 13.3877 16.6685 12.3254 17.5205C11.8738 17.8827 11.4979 18.1842 11.2413 18.4088C11.0527 18.5737 10.7712 18.5737 10.5827 18.4088C10.326 18.1842 9.95014 17.8827 9.49858 17.5205C8.4363 16.6685 6.95525 15.4806 5.62196 14.1675C4.66001 13.2201 3.74035 12.1774 3.05858 11.0948C2.37923 10.0161 1.91199 8.8597 1.91199 7.69469ZM6.77685 3.82983C4.62128 3.82983 2.91199 5.57821 2.91199 7.69469C2.91199 8.59726 3.27752 9.5659 3.90476 10.5619C4.52958 11.554 5.39032 12.5358 6.32364 13.455C7.62232 14.734 8.99622 15.8348 10.0459 16.6759C10.3693 16.935 10.6618 17.1694 10.912 17.3768C11.1621 17.1694 11.4547 16.935 11.778 16.6759C12.8278 15.8348 14.2017 14.734 15.5003 13.455C16.4337 12.5358 17.2944 11.554 17.9192 10.5619C18.5465 9.5659 18.912 8.59726 18.912 7.69469C18.912 5.57816 17.2034 3.82983 15.0471 3.82983C12.9526 3.82983 11.7301 5.53194 11.4153 6.04011C11.1847 6.41233 10.6393 6.41232 10.4087 6.0401C10.0939 5.53193 8.87143 3.82983 6.77685 3.82983Z" fill="#15151A"/>
</g>
</svg>
