<svg width="25" height="25" viewBox="0 0 25 25" fill="none" xmlns="http://www.w3.org/2000/svg">
<rect x="4.112" y="10.8098" width="16" height="10" rx="1" fill="#5C5CD6"/>
<rect x="5.112" y="11.8098" width="14" height="8" rx="1" fill="#EAEAF9"/>
<rect x="4.112" y="10.8098" width="16" height="10" rx="1" stroke="#5C5CD6" stroke-width="2"/>
<path d="M5.12201 5.80981C5.12201 3.60068 6.91287 1.80981 9.12201 1.80981H15.102C17.3111 1.80981 19.102 3.60068 19.102 5.80981C19.102 5.80981 18.2066 5.80981 17.102 5.80981H7.12201C6.01744 5.80981 5.12201 5.80981 5.12201 5.80981ZM19.102 5.80981H5.12201H19.102ZM5.12201 5.80981V3.80981V5.80981ZM19.102 3.80981V5.80981V3.80981Z" fill="#5C5CD6" mask="url(#path-3-inside-1_1_6066)"/>
<mask id="path-5-inside-2_1_6066" fill="white">
<path d="M4.13202 8.80981C4.13202 7.70524 5.02745 6.80981 6.13202 6.80981H18.102C19.2066 6.80981 20.102 7.70524 20.102 8.80981H4.13202Z"/>
</mask>
<path d="M4.13202 8.80981C4.13202 7.70524 5.02745 6.80981 6.13202 6.80981H18.102C19.2066 6.80981 20.102 7.70524 20.102 8.80981H4.13202Z" fill="#5C5CD6"/>
<path d="M4.13202 8.80981C4.13202 6.60068 5.92288 4.80981 8.13202 4.80981H16.102C18.3112 4.80981 20.102 6.60068 20.102 8.80981C20.102 8.80981 19.2066 8.80981 18.102 8.80981H6.13202C5.02745 8.80981 4.13202 8.80981 4.13202 8.80981ZM20.102 8.80981H4.13202H20.102ZM4.13202 8.80981V6.80981V8.80981ZM20.102 6.80981V8.80981V6.80981Z" fill="#5C5CD6" mask="url(#path-5-inside-2_1_6066)"/>
</svg>
