<svg width="25" height="25" viewBox="0 0 25 25" fill="none" xmlns="http://www.w3.org/2000/svg">
<g id="compass-icon">
<path id="Vector" fill-rule="evenodd" clip-rule="evenodd" d="M7.91199 11.8098C7.91199 9.04839 10.1506 6.80981 12.912 6.80981C15.6734 6.80981 17.912 9.04839 17.912 11.8098C17.912 14.0415 16.7199 16.0527 15.4273 17.536C14.7858 18.2721 14.1332 18.8623 13.6217 19.2659C13.3656 19.468 13.1495 19.6196 12.9922 19.718C12.9624 19.7366 12.9357 19.7527 12.912 19.7665C12.8883 19.7527 12.8616 19.7366 12.8318 19.718C12.6745 19.6196 12.4584 19.468 12.2023 19.2659C11.6908 18.8623 11.0382 18.2721 10.3967 17.536C9.10407 16.0527 7.91199 14.0415 7.91199 11.8098ZM12.912 5.80981C9.59828 5.80981 6.91199 8.4961 6.91199 11.8098C6.91199 14.3906 8.28026 16.6294 9.6428 18.193C10.3289 18.9803 11.0276 19.6128 11.5829 20.0509C11.8602 20.2698 12.1064 20.4438 12.3017 20.5659C12.3986 20.6265 12.4898 20.6786 12.5702 20.7174C12.6102 20.7367 12.6548 20.7563 12.7009 20.7721C12.7371 20.7845 12.8164 20.8098 12.912 20.8098C13.0076 20.8098 13.0869 20.7845 13.1231 20.7721C13.1692 20.7563 13.2138 20.7367 13.2538 20.7174C13.3342 20.6786 13.4254 20.6265 13.5223 20.5659C13.7176 20.4438 13.9638 20.2698 14.2411 20.0509C14.7964 19.6128 15.4951 18.9803 16.1812 18.193C17.5437 16.6294 18.912 14.3906 18.912 11.8098C18.912 8.4961 16.2257 5.80981 12.912 5.80981ZM11.912 11.8098C11.912 11.2575 12.3597 10.8098 12.912 10.8098C13.4643 10.8098 13.912 11.2575 13.912 11.8098C13.912 12.3621 13.4643 12.8098 12.912 12.8098C12.3597 12.8098 11.912 12.3621 11.912 11.8098ZM12.912 9.80981C11.8074 9.80981 10.912 10.7052 10.912 11.8098C10.912 12.9144 11.8074 13.8098 12.912 13.8098C14.0166 13.8098 14.912 12.9144 14.912 11.8098C14.912 10.7052 14.0166 9.80981 12.912 9.80981Z" fill="#141415"/>
</g>
</svg>
