<svg width="33" height="33" viewBox="0 0 33 33" fill="none" xmlns="http://www.w3.org/2000/svg">
<path id="Vector" d="M32.9015 16.8151C32.9008 19.9802 31.9617 23.0741 30.2031 25.7053C28.4445 28.3366 25.9453 30.387 23.0217 31.5973C20.098 32.8076 16.8812 33.1233 13.7782 32.5047C10.6752 31.886 7.82522 30.3606 5.58885 28.1215C3.35248 25.8824 1.83014 23.0302 1.2144 19.9256C0.598652 16.8209 0.91715 13.6034 2.12961 10.6798C3.34207 7.75627 5.39403 5.25807 8.02595 3.50121C10.6579 1.74434 13.7515 0.807725 16.9156 0.809818C19.0166 0.80889 21.0973 1.2223 23.0385 2.02639C24.9798 2.83049 26.7435 4.00951 28.2289 5.49602C29.7142 6.98252 30.8921 8.74735 31.695 10.6896C32.498 12.6318 32.9104 14.7133 32.9085 16.8151H32.9015ZM18.7423 6.36951C18.1428 6.31307 17.5292 6.28837 16.9085 6.28837C16.2878 6.28837 15.6777 6.31307 15.0782 6.36951V14.9031H18.7423V6.36951ZM27.2062 11.3436C25.8708 10.9047 24.5061 10.5605 23.1223 10.3135V17.4818C23.1223 22.6394 20.9358 25.3522 16.905 25.3522C12.8741 25.3522 10.6948 22.6394 10.6948 17.4818V10.3135C9.30996 10.5609 7.94419 10.9051 6.60749 11.3436V17.5206C6.58217 18.8897 6.82985 20.25 7.33607 21.5222C7.84228 22.7943 8.59688 23.9528 9.55577 24.9299C10.5147 25.9071 11.6586 26.6832 12.9207 27.2131C14.1829 27.7429 15.538 28.0158 16.9068 28.0158C18.2756 28.0158 19.6306 27.7429 20.8928 27.2131C22.155 26.6832 23.2989 25.9071 24.2578 24.9299C25.2167 23.9528 25.9713 22.7943 26.4775 21.5222C26.9837 20.25 27.2315 18.8897 27.2062 17.5206V11.3436Z" fill="#7000FF"/>
</svg>
