<svg width="25" height="25" viewBox="0 0 25 25" fill="none" xmlns="http://www.w3.org/2000/svg">
<g id="Frame">
<path id="Vector" fill-rule="evenodd" clip-rule="evenodd" d="M15.752 11.3098C15.752 14.0712 13.5134 16.3098 10.752 16.3098C7.99056 16.3098 5.75198 14.0712 5.75198 11.3098C5.75198 8.54839 7.99056 6.30981 10.752 6.30981C13.5134 6.30981 15.752 8.54839 15.752 11.3098ZM14.5918 16.5549C13.516 17.3439 12.1884 17.8098 10.752 17.8098C7.16213 17.8098 4.25198 14.8997 4.25198 11.3098C4.25198 7.71996 7.16213 4.80981 10.752 4.80981C14.3419 4.80981 17.252 7.71996 17.252 11.3098C17.252 12.7462 16.7861 14.0738 15.9971 15.1496L19.961 19.1134C20.349 19.5015 20.349 20.1307 19.961 20.5188C19.5729 20.9068 18.9437 20.9068 18.5556 20.5188L14.5918 16.5549Z" fill="black"/>
</g>
</svg>
