<svg width="25" height="25" viewBox="0 0 25 25" fill="none" xmlns="http://www.w3.org/2000/svg">
<g id="Frame">
<path id="Vector" fill-rule="evenodd" clip-rule="evenodd" d="M12.292 3.80981C10.0828 3.80981 8.29199 5.60067 8.29199 7.80981V8.80981C8.29199 11.0189 10.0828 12.8098 12.292 12.8098C14.5011 12.8098 16.292 11.0189 16.292 8.80981V7.80981C16.292 5.60067 14.5011 3.80981 12.292 3.80981ZM9.79199 7.80981C9.79199 6.4291 10.9113 5.30981 12.292 5.30981C13.6727 5.30981 14.792 6.4291 14.792 7.80981V8.80981C14.792 10.1905 13.6727 11.3098 12.292 11.3098C10.9113 11.3098 9.79199 10.1905 9.79199 8.80981V7.80981ZM5.79431 20.1784C6.2652 17.0675 9.31002 15.3098 12.2942 15.3098C15.2778 15.3098 18.323 17.0675 18.7939 20.1784C18.7966 20.1964 18.7945 20.207 18.792 20.2146C18.789 20.2235 18.7823 20.2367 18.7679 20.2518C18.7373 20.2839 18.6814 20.3137 18.6091 20.3137H5.97917C5.90686 20.3137 5.85097 20.2839 5.82037 20.2518C5.80593 20.2367 5.79925 20.2235 5.79626 20.2146C5.79373 20.207 5.7916 20.1963 5.79431 20.1784ZM12.2942 13.8098C8.8652 13.8098 4.93236 15.8502 4.31121 19.9539C4.14823 21.0306 5.04926 21.8137 5.97917 21.8137H18.6091C19.539 21.8137 20.44 21.0306 20.277 19.9539C19.6558 15.8502 15.7226 13.8098 12.2942 13.8098Z" fill="black"/>
</g>
</svg>
