<svg width="216" height="33" viewBox="0 0 216 33" fill="none" xmlns="http://www.w3.org/2000/svg">
<g clip-path="url(#clip0_1_6047)">
<mask id="mask0_1_6047" style="mask-type:luminance" maskUnits="userSpaceOnUse" x="0" y="0" width="216" height="33">
<path d="M215.912 0.809814H0.911987V32.8098H215.912V0.809814Z" fill="white"/>
</mask>
<g mask="url(#mask0_1_6047)">
<path d="M185.542 10.758H189.959L184.378 17.0726L190.421 23.7612H185.993L180.162 17.3937V23.7612H176.412V6.73289H180.162V16.8504L185.542 10.758Z" fill="#7000FF"/>
<path d="M168.009 13.552V10.7545H164.259V23.7577H168.009V18.0145C168.009 15.7885 169.625 14.3598 171.681 14.3598H174.133V10.4793H172.292C170.013 10.4899 168.365 12.4231 168.009 13.552Z" fill="#7000FF"/>
<path fill-rule="evenodd" clip-rule="evenodd" d="M159.408 10.7545V19.1928C159.408 20.3287 159.729 20.6074 160.488 20.6039H161.081V23.7577H158.932C158.219 23.794 157.515 23.5923 156.929 23.1842C156.343 22.7761 155.91 22.1848 155.697 21.5035C154.784 23.1333 152.875 24.0611 150.794 24.0611C146.857 24.0611 144.338 20.6568 144.419 17.242C144.419 13.8659 146.645 10.5005 150.981 10.5005C153.499 10.5005 154.918 11.6011 155.725 12.8041L155.697 10.7545H159.408ZM148.039 17.2808C148.039 19.3374 149.644 20.8085 151.76 20.8085C153.962 20.8085 155.553 19.3198 155.553 17.2808C155.553 15.2417 153.962 13.7989 151.76 13.7989C149.63 13.7989 148.039 15.2241 148.039 17.2808Z" fill="#7000FF"/>
<path d="M131.24 12.9276C132.129 11.4706 133.917 10.504 136.288 10.504C140.32 10.504 142.253 13.0475 142.253 16.1978V23.7506H138.503V16.7163C138.503 15.2312 137.642 13.8941 135.84 13.8941C134.037 13.8941 133.148 15.1641 133.148 16.674V23.7718H129.384V16.6846C129.384 15.1747 128.439 13.9047 126.625 13.9047C124.812 13.9047 124.015 15.2312 124.015 16.7269V23.7612H120.265V16.1978C120.265 13.0475 122.318 10.504 126.336 10.504C128.375 10.504 130.336 11.4706 131.24 12.9276Z" fill="#7000FF"/>
<path fill-rule="evenodd" clip-rule="evenodd" d="M197.73 10.504C193.409 10.504 190.675 12.9134 190.675 17.2702C190.675 21.6269 193.405 24.0646 197.765 24.0646C204.024 24.0646 204.408 19.8313 204.408 19.8313H200.288C200.288 19.8313 199.97 21.1542 197.769 21.1542C195.37 21.1542 194.629 19.7114 194.629 18.2826H204.648C204.697 17.9484 204.724 17.6114 204.729 17.2737C204.729 12.9134 201.985 10.504 197.73 10.504ZM194.682 15.9861C194.682 14.9278 195.388 13.4179 197.73 13.4179C200.073 13.4179 200.725 14.9278 200.725 15.9861H194.682Z" fill="#7000FF"/>
<path d="M215.912 10.5111V13.5308L211.827 13.5414V18.1274C211.827 19.9407 212.307 20.5086 213.591 20.5086H215.912V23.7929H213.591C209.855 23.7929 208.091 22.2584 208.091 18.6178V13.5449H206.197V11.3859L209.816 7.9323H211.841V10.5111H215.912Z" fill="#7000FF"/>
<path d="M104.535 10.4899C102.161 10.4899 100.373 11.4565 99.4836 12.9275C98.584 11.4565 96.6226 10.4899 94.5801 10.4899C90.5761 10.4899 88.5089 13.0475 88.5089 16.1977V23.7612H92.2624V16.7269C92.2624 15.217 93.0561 13.9047 94.8729 13.9047C96.6897 13.9047 97.6421 15.1747 97.6421 16.6846V23.7718H101.392V16.674C101.392 15.1641 102.281 13.8941 104.084 13.8941C105.887 13.8941 106.747 15.217 106.747 16.7163V23.7506H110.497V16.1977C110.497 13.0475 108.564 10.4899 104.535 10.4899Z" fill="#7000FF"/>
<path d="M69.2123 10.7439V13.9083L61.7229 20.5968H69.6603V23.7612H56.7383V20.5968L64.2417 13.9083H57.0311V10.7439H69.2123Z" fill="#7000FF"/>
<path d="M78.9947 20.5827C80.7303 20.5827 81.8945 19.6267 81.8945 17.563V10.7545H85.648V17.7041C85.648 22.2443 81.8521 24.0081 79.0053 24.0081C76.1584 24.0081 72.3661 22.2337 72.3661 17.7041V10.7545H76.1302V17.563C76.1302 19.6267 77.259 20.5827 78.9947 20.5827Z" fill="#7000FF"/>
<path d="M47.6331 20.5827C49.3546 20.5827 50.5223 19.6267 50.5223 17.563V10.7545H54.2723V17.7041C54.2723 22.2443 50.4694 24.0081 47.6472 24.0081C44.7827 24.0081 41.0045 22.2337 41.0045 17.7041V10.7545H44.758V17.563C44.758 19.6267 45.9116 20.5827 47.6331 20.5827Z" fill="#7000FF"/>
<path d="M32.9015 16.8151C32.9008 19.9802 31.9618 23.0741 30.2031 25.7053C28.4445 28.3366 25.9453 30.387 23.0217 31.5973C20.098 32.8076 16.8812 33.1233 13.7782 32.5047C10.6752 31.886 7.82522 30.3606 5.58885 28.1215C3.35248 25.8824 1.83014 23.0302 1.2144 19.9256C0.598652 16.8209 0.91715 13.6034 2.12961 10.6798C3.34207 7.75628 5.39403 5.25807 8.02595 3.50121C10.6579 1.74434 13.7515 0.807725 16.9156 0.809818C19.0166 0.80889 21.0973 1.2223 23.0385 2.02639C24.9798 2.83049 26.7435 4.00951 28.2289 5.49602C29.7142 6.98252 30.8921 8.74735 31.695 10.6896C32.498 12.6318 32.9104 14.7133 32.9085 16.8151H32.9015ZM18.7423 6.36951C18.1428 6.31307 17.5292 6.28837 16.9085 6.28837C16.2878 6.28837 15.6777 6.31307 15.0782 6.36951V14.9031H18.7423V6.36951ZM27.2062 11.3436C25.8708 10.9047 24.5061 10.5605 23.1223 10.3135V17.4818C23.1223 22.6394 20.9358 25.3522 16.905 25.3522C12.8741 25.3522 10.6948 22.6394 10.6948 17.4818V10.3135C9.30996 10.5609 7.94419 10.9051 6.60749 11.3436V17.5206C6.58217 18.8897 6.82985 20.25 7.33607 21.5222C7.84228 22.7943 8.59688 23.9528 9.55577 24.9299C10.5147 25.9071 11.6586 26.6832 12.9207 27.2131C14.1829 27.7429 15.538 28.0158 16.9068 28.0158C18.2756 28.0158 19.6306 27.7429 20.8928 27.2131C22.155 26.6832 23.2989 25.9071 24.2578 24.9299C25.2167 23.9528 25.9713 22.7943 26.4775 21.5222C26.9837 20.25 27.2314 18.8897 27.2062 17.5206V11.3436Z" fill="#7000FF"/>
</g>
</g>
<defs>
<clipPath id="clip0_1_6047">
<rect width="215" height="32" fill="white" transform="translate(0.911987 0.809814)"/>
</clipPath>
</defs>
</svg>
