<svg width="17" height="17" viewBox="0 0 17 17" fill="none" xmlns="http://www.w3.org/2000/svg">
<g id="Frame">
<path id="Vector" d="M8.91199 11.4765C9.11912 11.4705 9.30852 11.393 9.46245 11.226L13.2107 7.34788C13.341 7.21667 13.412 7.04968 13.412 6.85286C13.412 6.45924 13.1042 6.14314 12.7136 6.14314C12.5242 6.14314 12.3407 6.22068 12.2045 6.35785L8.91792 9.77674L5.61943 6.35785C5.48329 6.22664 5.30573 6.14314 5.11041 6.14314C4.71977 6.14314 4.41199 6.45924 4.41199 6.85286C4.41199 7.04968 4.48301 7.21667 4.61323 7.34788L8.36745 11.226C8.52725 11.393 8.70485 11.4765 8.91199 11.4765Z" fill="#62656A"/>
</g>
</svg>
