<svg width="25" height="25" viewBox="0 0 25 25" fill="none" xmlns="http://www.w3.org/2000/svg">
<g id="image" clip-path="url(#clip0_1_6001)">
<path id="Vector" d="M15.873 3.75003C16.5529 2.81626 17.0142 1.56247 16.8925 0.28125C15.8973 0.335591 14.6829 1.00224 13.9798 1.93674C13.3484 2.737 12.7897 4.04328 12.9353 5.27079C14.0525 5.37721 15.1686 4.6576 15.873 3.75003Z" fill="black"/>
<path id="Vector_2" d="M17.2921 5.28861C15.471 5.17875 13.9226 6.33529 13.053 6.33529C12.1829 6.33529 10.8511 5.34397 9.41076 5.37068C7.53604 5.39857 5.79651 6.47203 4.84516 8.17933C2.88841 11.5947 4.32877 16.6611 6.23161 19.4427C7.15568 20.8189 8.26932 22.3342 9.73673 22.2798C11.1232 22.2247 11.6666 21.3706 13.3519 21.3706C15.036 21.3706 15.5255 22.2798 16.9931 22.2522C18.5151 22.2247 19.4666 20.8754 20.3907 19.4978C21.4507 17.929 21.8847 16.4142 21.912 16.3311C21.8847 16.3035 18.9772 15.174 18.9502 11.7869C18.9228 8.95093 21.233 7.60195 21.3417 7.51829C20.0371 5.56429 17.9987 5.34397 17.2921 5.28861Z" fill="black"/>
</g>
<defs>
<clipPath id="clip0_1_6001">
<rect width="24" height="24" fill="white" transform="translate(0.911987 0.28125)"/>
</clipPath>
</defs>
</svg>
