<svg width="33" height="33" viewBox="0 0 33 33" fill="none" xmlns="http://www.w3.org/2000/svg">
<g id="&#208;&#161;&#208;&#187;&#208;&#190;&#208;&#185;_1">
<g id="surface1">
<path id="Vector" d="M32.912 28.3368C32.912 30.8257 30.9564 32.7813 28.4675 32.7813H5.35643C2.86754 32.7813 0.911987 30.8257 0.911987 28.3368V5.22569C0.911987 2.73681 2.86754 0.78125 5.35643 0.78125H28.4675C30.9564 0.78125 32.912 2.73681 32.912 5.22569V28.3368Z" fill="#3B5998"/>
<path id="Vector_2" d="M26.1564 17.6706H23.1342V29.2261H18.6898V17.6706H16.0231V14.115H18.6898V11.9817C18.6898 8.87057 20.0231 7.00391 23.6675 7.00391H26.6898V10.5595H24.6453C23.2231 10.5595 23.1342 11.0928 23.1342 12.0706V14.115H26.6898L26.1564 17.6706Z" fill="white"/>
</g>
</g>
</svg>
