<svg width="25" height="25" viewBox="0 0 25 25" fill="none" xmlns="http://www.w3.org/2000/svg">
<g id="image" clip-path="url(#clip0_1_6007)">
<path id="Vector" d="M2.93854 0.681641C2.6586 0.961575 2.47198 1.42813 2.47198 1.988V22.6099C2.47198 23.1697 2.6586 23.6363 2.93854 23.9162L3.03185 24.0096L14.6025 12.4389L2.93854 0.681641Z" fill="url(#paint0_linear_1_6007)"/>
<path id="Vector_2" d="M18.4283 16.2644L14.6025 12.4387L18.4283 8.51953L23.0005 11.1323C24.3069 11.8788 24.3069 13.0918 23.0005 13.8383L18.4283 16.2644Z" fill="url(#paint1_linear_1_6007)"/>
<path id="Vector_3" d="M18.4283 16.2653L14.6025 12.4395L2.93854 23.9169C3.4051 24.3834 4.05828 24.3834 4.89808 24.0102L18.4283 16.2653Z" fill="url(#paint2_linear_1_6007)"/>
<path id="Vector_4" d="M18.4283 8.51947L4.80477 0.587989C4.05828 0.121431 3.31179 0.214743 2.93854 0.6813L14.6025 12.4385L18.4283 8.51947Z" fill="url(#paint3_linear_1_6007)"/>
</g>
<defs>
<linearGradient id="paint0_linear_1_6007" x1="13.508" y1="1.77264" x2="-2.15187" y2="17.4326" gradientUnits="userSpaceOnUse">
<stop stop-color="#00A0FF"/>
<stop offset="0.00657445" stop-color="#00A1FF"/>
<stop offset="0.2601" stop-color="#00BEFF"/>
<stop offset="0.5122" stop-color="#00D2FF"/>
<stop offset="0.7604" stop-color="#00DFFF"/>
<stop offset="1" stop-color="#00E3FF"/>
</linearGradient>
<linearGradient id="paint1_linear_1_6007" x1="24.7378" y1="12.309" x2="2.1593" y2="12.309" gradientUnits="userSpaceOnUse">
<stop stop-color="#FFE000"/>
<stop offset="0.4087" stop-color="#FFBD00"/>
<stop offset="0.7754" stop-color="#FFA500"/>
<stop offset="1" stop-color="#FF9C00"/>
</linearGradient>
<linearGradient id="paint2_linear_1_6007" x1="16.3329" y1="14.451" x2="-4.90326" y2="35.6871" gradientUnits="userSpaceOnUse">
<stop stop-color="#FF3A44"/>
<stop offset="1" stop-color="#C31162"/>
</linearGradient>
<linearGradient id="paint3_linear_1_6007" x1="-0.0243793" y1="-6.19044" x2="9.4585" y2="3.29234" gradientUnits="userSpaceOnUse">
<stop stop-color="#32A071"/>
<stop offset="0.0685" stop-color="#2DA771"/>
<stop offset="0.4762" stop-color="#15CF74"/>
<stop offset="0.8009" stop-color="#06E775"/>
<stop offset="1" stop-color="#00F076"/>
</linearGradient>
<clipPath id="clip0_1_6007">
<rect width="24" height="24" fill="white" transform="translate(0.471985 0.28125)"/>
</clipPath>
</defs>
</svg>
