<svg width="33" height="33" viewBox="0 0 33 33" fill="none" xmlns="http://www.w3.org/2000/svg">
<g id="Frame">
<path id="Vector" d="M16.912 0.78125C30.2453 0.78125 32.912 3.44792 32.912 16.7813C32.912 30.1146 30.2453 32.7813 16.912 32.7813C3.57865 32.7813 0.911987 30.1146 0.911987 16.7813C0.911987 3.44792 3.57865 0.78125 16.912 0.78125Z" fill="url(#paint0_linear_1_6017)"/>
<path id="Vector_2" fill-rule="evenodd" clip-rule="evenodd" d="M16.9118 9.12887C19.4041 9.12887 19.6989 9.13853 20.6833 9.18333C21.5932 9.2248 22.0874 9.37673 22.4164 9.50453C22.8521 9.67387 23.1629 9.87613 23.4897 10.2025C23.8165 10.5293 24.0187 10.8401 24.1877 11.2758C24.3155 11.6048 24.4674 12.099 24.5089 13.0089C24.5537 13.9929 24.5633 14.2882 24.5633 16.7804C24.5633 19.2727 24.5537 19.5675 24.5089 20.5519C24.4674 21.4618 24.3155 21.956 24.1877 22.285C24.0184 22.7207 23.8161 23.0315 23.4897 23.3583C23.1629 23.6851 22.8521 23.8873 22.4164 24.0563C22.0874 24.1841 21.5932 24.336 20.6833 24.3775C19.6993 24.4223 19.4041 24.4319 16.9118 24.4319C14.4196 24.4319 14.1243 24.4223 13.1403 24.3775C12.2304 24.336 11.7362 24.1841 11.4072 24.0563C10.9715 23.887 10.6607 23.6847 10.3339 23.3583C10.0072 23.0315 9.80486 22.7207 9.63593 22.285C9.50813 21.956 9.35619 21.4618 9.31473 20.5519C9.26993 19.5679 9.26026 19.2727 9.26026 16.7804C9.26026 14.2882 9.26993 13.9933 9.31473 13.0089C9.35619 12.099 9.50813 11.6048 9.63593 11.2758C9.80526 10.8401 10.0075 10.5293 10.3339 10.2025C10.6607 9.8758 10.9715 9.67347 11.4072 9.50453C11.7362 9.37673 12.2304 9.2248 13.1403 9.18333C14.1247 9.13853 14.4196 9.12887 16.9118 9.12887ZM16.9118 7.44727C14.377 7.44727 14.0591 7.458 13.0636 7.5036C12.0704 7.5488 11.392 7.7066 10.7981 7.9374C10.1843 8.176 9.66373 8.495 9.14506 9.014C8.62639 9.53273 8.30699 10.0532 8.06879 10.6667C7.83799 11.2606 7.68019 11.939 7.63499 12.9322C7.58939 13.9277 7.57866 14.2456 7.57866 16.7804C7.57866 19.3153 7.58939 19.6331 7.63499 20.6286C7.68019 21.6219 7.83799 22.3002 8.06879 22.8941C8.30739 23.508 8.62639 24.0285 9.14539 24.5472C9.66446 25.0662 10.1846 25.3852 10.7985 25.6238C11.392 25.8546 12.0707 26.0124 13.064 26.0576C14.0595 26.1032 14.3773 26.1139 16.9122 26.1139C19.447 26.1139 19.7649 26.1032 20.7604 26.0576C21.7536 26.0124 22.4323 25.8546 23.0259 25.6238C23.6397 25.3852 24.1603 25.0662 24.6789 24.5472C25.198 24.0281 25.517 23.508 25.7555 22.8941C25.9863 22.3006 26.1442 21.6219 26.1894 20.6286C26.2349 19.6331 26.2457 19.3153 26.2457 16.7804C26.2457 14.2456 26.2349 13.9277 26.1894 12.9322C26.1442 11.939 25.9863 11.2603 25.7555 10.6667C25.517 10.0529 25.198 9.53233 24.6789 9.01367C24.1599 8.4946 23.6397 8.1756 23.0259 7.93707C22.4316 7.7066 21.7533 7.5488 20.76 7.5036C19.7645 7.458 19.4467 7.44727 16.9118 7.44727ZM16.9118 11.9879C14.2647 11.9879 12.1193 14.1337 12.1193 16.7804C12.1193 19.4271 14.2651 21.5729 16.9118 21.5729C19.5585 21.5729 21.7043 19.4271 21.7043 16.7804C21.7043 14.1337 19.5589 11.9879 16.9118 11.9879ZM16.9118 19.8913C15.1935 19.8913 13.8009 18.4983 13.8009 16.7804C13.8009 15.0621 15.1939 13.6695 16.9118 13.6695C18.6297 13.6695 20.0227 15.0625 20.0227 16.7804C20.0227 18.4987 18.6301 19.8913 16.9118 19.8913ZM23.014 11.7982C23.014 12.4167 22.5126 12.9181 21.8941 12.9181C21.2755 12.9181 20.7741 12.4167 20.7741 11.7982C20.7741 11.1797 21.2755 10.6782 21.8941 10.6782C22.5126 10.6782 23.014 11.1797 23.014 11.7982Z" fill="white"/>
</g>
<defs>
<linearGradient id="paint0_linear_1_6017" x1="29.4523" y1="4.55218" x2="4.27478" y2="29.1048" gradientUnits="userSpaceOnUse">
<stop stop-color="#BA00B2"/>
<stop offset="0.5" stop-color="#F40000"/>
<stop offset="1" stop-color="#FFA800"/>
</linearGradient>
</defs>
</svg>
