<svg width="33" height="33" viewBox="0 0 33 33" fill="none" xmlns="http://www.w3.org/2000/svg">
<g id="Frame">
<path id="Vector" d="M16.912 0.78125C30.2453 0.78125 32.912 3.44792 32.912 16.7813C32.912 30.1146 30.2453 32.7813 16.912 32.7813C3.57866 32.7813 0.911987 30.1146 0.911987 16.7813C0.911987 3.44792 3.57866 0.78125 16.912 0.78125Z" fill="url(#paint0_linear_1_6021)"/>
<path id="Vector_2" d="M8.77315 16.6465C13.4375 14.6143 16.5478 13.2746 18.104 12.6273C22.5474 10.7791 23.4707 10.4581 24.0725 10.4474C24.2049 10.4452 24.5008 10.478 24.6925 10.6335C24.8543 10.7649 24.8989 10.9423 24.9202 11.0669C24.9415 11.1914 24.9681 11.475 24.947 11.6967C24.7062 14.2266 23.6643 20.3663 23.1342 23.1999C22.91 24.3989 22.4683 24.8009 22.0408 24.8402C21.1116 24.9258 20.4061 24.2262 19.5062 23.6363C18.098 22.7132 17.3024 22.1386 15.9355 21.2378C14.3558 20.1968 15.3798 19.6246 16.2801 18.6895C16.5157 18.4449 20.6096 14.7212 20.6888 14.3834C20.6987 14.3412 20.7079 14.1837 20.6143 14.1005C20.5208 14.0174 20.3827 14.0458 20.283 14.0684C20.1418 14.1005 17.8922 15.5874 13.5342 18.5292C12.8956 18.9677 12.3172 19.1813 11.799 19.1701C11.2278 19.1578 10.1289 18.8471 9.31192 18.5815C8.30988 18.2558 7.51353 18.0837 7.58288 17.5305C7.619 17.2423 8.01577 16.9477 8.77315 16.6465Z" fill="white"/>
</g>
<defs>
<linearGradient id="paint0_linear_1_6021" x1="16.912" y1="0.78125" x2="16.912" y2="32.5438" gradientUnits="userSpaceOnUse">
<stop stop-color="#2AABEE"/>
<stop offset="1" stop-color="#229ED9"/>
</linearGradient>
</defs>
</svg>
